<svg width="30" height="53" viewBox="0 0 30 53" fill="none" xmlns="http://www.w3.org/2000/svg">
<path d="M1 53V45.4375L13.2812 26.3438C13.4896 26.0104 13.8958 25.3958 14.5 24.5C15.1042 23.6042 15.5417 22.9271 15.8125 22.4688C16.1042 22.0104 16.4792 21.3646 16.9375 20.5312C17.4167 19.6771 17.7708 18.9479 18 18.3438C18.2292 17.7396 18.4375 17.0521 18.625 16.2812C18.8125 15.4896 18.9062 14.7292 18.9062 14C18.9062 12.375 18.5521 11.1667 17.8438 10.375C17.2812 9.75 16.5521 9.44792 15.6562 9.46875C15.4271 9.46875 15.1771 9.48958 14.9062 9.53125C13.6771 9.69792 12.7708 10.3542 12.1875 11.5C11.625 12.6458 11.3438 14.3646 11.3438 16.6562V19.1562H0.96875V16.4688C0.96875 14.1146 1.23958 11.9896 1.78125 10.0938C2.32292 8.17708 3.15625 6.47917 4.28125 5C5.40625 3.52083 6.90625 2.38542 8.78125 1.59375C10.6771 0.78125 12.8854 0.375 15.4062 0.375C20.0104 0.375 23.5104 1.58333 25.9062 4C28.3021 6.39583 29.5 9.77083 29.5 14.125C29.5 14.7708 29.4583 15.4271 29.375 16.0938C29.2917 16.7396 29.1979 17.3333 29.0938 17.875C29.0104 18.3958 28.8438 18.9896 28.5938 19.6562C28.3646 20.3229 28.1771 20.8646 28.0312 21.2812C27.8854 21.6771 27.625 22.2292 27.25 22.9375C26.875 23.625 26.6042 24.125 26.4375 24.4375C26.2917 24.7292 25.9792 25.25 25.5 26C25.0208 26.7292 24.7083 27.2083 24.5625 27.4375C24.4167 27.6458 24.0625 28.1562 23.5 28.9688C22.9583 29.7812 22.625 30.2708 22.5 30.4375L13.0312 44.5938H28.0625V53H1Z" fill="#287400"/>
</svg>
