<svg width="30" height="54" viewBox="0 0 30 54" fill="none" xmlns="http://www.w3.org/2000/svg">
<path d="M15 53.9375C12.3542 53.9375 10.0833 53.5625 8.1875 52.8125C6.3125 52.0417 4.83333 50.9167 3.75 49.4375C2.66667 47.9583 1.875 46.2708 1.375 44.375C0.895833 42.4583 0.65625 40.2396 0.65625 37.7188V35.875H11.375V37.6875C11.3958 40.3333 11.6667 42.2083 12.1875 43.3125C12.7083 44.3958 13.6875 44.9375 15.125 44.9375C16.5208 44.9375 17.4479 44.4062 17.9062 43.3438C18.3646 42.2812 18.5938 40.5104 18.5938 38.0312C18.5938 35.3229 18.2083 33.3438 17.4375 32.0938C16.6875 30.8438 15.2604 30.1875 13.1562 30.125H11.2812V22.625H12.9688C15.1354 22.6042 16.6146 22.0208 17.4062 20.875C18.1979 19.7083 18.5938 17.7917 18.5938 15.125C18.5938 13.0208 18.3125 11.4688 17.75 10.4688C17.2083 9.46875 16.25 8.96875 14.875 8.96875C13.5208 8.96875 12.6042 9.51042 12.125 10.5938C11.6458 11.6562 11.3958 13.2396 11.375 15.3438V18H0.65625V14.875C0.65625 10.25 1.90625 6.67708 4.40625 4.15625C6.92708 1.63542 10.4062 0.375 14.8438 0.375C19.3854 0.375 22.9062 1.58333 25.4062 4C27.9062 6.39583 29.1562 9.875 29.1562 14.4375C29.1562 17.375 28.5521 19.875 27.3438 21.9375C26.1562 24 24.6354 25.2812 22.7812 25.7812C27.0312 27.3229 29.1562 31.3125 29.1562 37.75C29.1562 40.2083 28.8958 42.3958 28.375 44.3125C27.875 46.2292 27.0729 47.9271 25.9688 49.4062C24.8854 50.8646 23.4167 51.9896 21.5625 52.7812C19.7083 53.5521 17.5208 53.9375 15 53.9375Z" fill="#287400"/>
</svg>
