<svg width="3280" height="1674" viewBox="0 0 3280 1674" fill="none" xmlns="http://www.w3.org/2000/svg">
<g opacity="0.4">
<path fill-rule="evenodd" clip-rule="evenodd" d="M1078.67 21.7213C1190.81 29.1521 1282.45 41.6251 1382.21 60.4176C1528.69 87.9843 1659.06 128.024 1791.5 177.701C1989.69 252.041 2179.15 347.297 2369.34 439.734C2460.07 457.415 2494.11 472.542 2576.77 515.55C2875.84 617.673 3001.64 759.123 3168.46 991.981C3199.73 1035.64 3149.01 1059.4 3135.55 1119.98C3160.32 1194.82 3180.26 1268.68 3201.35 1344.58C3215.35 1351.24 3212.91 1352.26 3221.06 1367.51L3252.85 1427.08L3278.13 1437.58L3280.04 1447.59C3264.23 1464.38 3189.44 1490.5 3146.93 1501.2C3095.88 1514.06 2990.39 1503.99 2935.26 1500.06C2623.68 1535.92 2362.21 1559.17 2049.92 1569.02C2003.94 1570.47 1959.21 1572.13 1915.25 1586.56C1816.2 1619.07 1800.18 1625.67 1698.5 1623.13C1344.75 1614.32 1002.53 1588.86 648.695 1560.61L663.954 1489.08L679.214 1482.41C679.214 1255.76 674.868 1024.9 587.988 816.23C564.336 759.438 528.078 693.474 477.472 650.117C394.905 579.359 294.009 586.789 228.675 675.544C147.833 785.346 125.176 991.781 124.545 1092.66C123.882 1200.67 140.916 1308.53 177.788 1409L-612.143 1237.56C-646.875 1299.2 -662.649 1305.6 -731.649 1309.16C-805.525 1312.98 -873.811 1313.53 -947.14 1313.19C-1021.93 1312.85 -1056.66 1283.37 -1076.68 1237.03C-1118.15 1141.06 -1117.81 987.651 -1111.69 882.161C-1119.9 818.32 -1119.06 759.687 -1115.03 697.803C-1113.29 670.933 -1110.1 651.526 -1105.31 630.86C-1088.41 557.912 -1064.82 488.349 -1029.01 423.645C-1002.34 375.461 -987.196 363.088 -936.691 353.069L-920.005 339.949C-744.404 278.828 -571.473 212.383 -397 149.006C-260.51 99.429 -159.631 71.8457 -34.3864 45.6888C171.12 2.81274 316.683 2 523.45 2L541.562 4.38845C727.348 1.22044 892.632 9.39757 1078.65 21.7379L1078.67 21.7213Z" stroke="#4A9200" stroke-width="3" stroke-miterlimit="22.93"/>
<path d="M910.203 53.7329C1060.76 57.6473 1204.41 65.3103 1353.29 77.8994C1469.1 87.702 1556.36 103.841 1666.96 141.99C1894.31 220.41 2128.15 330.661 2330.79 447.629" stroke="#4A9200" stroke-width="3" stroke-miterlimit="22.93"/>
<path d="M2369.34 439.733L2375.12 445.721L2112.37 472.906C1849.47 467.831 1589.43 465.061 1326.49 469.091C1073.23 450.282 821.875 435.454 568.268 423.313C481.753 320.211 411.493 221.19 316.187 126.133C274.605 84.6501 269.944 75.9588 334.415 70.4521C530.302 53.7163 712.919 55.1925 910.198 53.7495" stroke="#4A9200" stroke-width="3" stroke-miterlimit="22.93"/>
<path d="M568.272 423.313C541.584 421.637 479.252 406.411 435.58 420.957C402.308 432.054 354.622 461.279 209.656 523.694C170.197 517.69 129.029 509.131 87.0817 499.03M-302.07 384.683C-367.968 352.737 -427.945 288.846 -422.223 246.866L-399.549 184.65L-287.408 138.904C-175.001 105.881 -69.2624 72.774 49.5299 73.1224C98.0288 73.255 156.662 90.0737 199.223 117.375C301.678 183.091 385.904 317.939 456.761 416.214" stroke="#4A9200" stroke-width="3" stroke-miterlimit="22.93"/>
<path d="M17.2344 35.5866C188.258 32.3356 239.593 58.8243 316.471 143.017C397.894 232.186 467.458 324.258 539.907 420.426" stroke="#4A9200" stroke-width="3" stroke-miterlimit="22.93"/>
<path d="M435.571 420.958C371.896 332.917 304.422 236.135 224.16 163.221C144.91 91.2357 79.5096 78.7958 -64.0298 99.0977C-132.167 108.734 -162.056 113.279 -208.349 144.163C-268.359 201.917 -312.843 271.133 -353.348 334.128" stroke="#4A9200" stroke-width="3" stroke-miterlimit="22.93"/>
<path d="M234.168 512.616C184.806 505.301 135.511 495.25 86.3489 483.49M-297.645 373.787C-372.765 325.371 -371.09 317.161 -399.801 278.713L-398.126 239.138C-359.827 196.212 -336.241 175.894 -290.015 139.967" stroke="#4A9200" stroke-width="3" stroke-miterlimit="22.93"/>
<path d="M295.174 236.864C245.846 328.256 215.559 406.842 184.145 505.217" stroke="#4A9200" stroke-width="3" stroke-miterlimit="22.93"/>
<path d="M314.922 260.07C276.408 343.931 245.026 422.932 212.898 509.481" stroke="#4A9200" stroke-width="3" stroke-miterlimit="22.93"/>
<path d="M484.82 2.0166C543.719 13.6603 583.875 23.5293 640.451 43.3999C605.669 26.6807 576.792 17.7406 541.579 4.38847" stroke="#4A9200" stroke-width="3" stroke-miterlimit="22.93"/>
<path d="M1073.45 21.373C1165.88 33.5641 1236.06 44.0633 1325.23 66.7536C1289.83 52.6054 1258.9 44.2624 1223.67 35.2891" stroke="#4A9200" stroke-width="3" stroke-miterlimit="22.93"/>
<path fill-rule="evenodd" clip-rule="evenodd" d="M82.9962 422.501L88.7185 526.929C114.195 535.14 118.226 555.193 96.3649 569.872C69.2957 588.05 44.8639 604.471 15.5058 619.731C3.09912 626.183 -31.9315 628.289 -29.3772 609.065L-12.3761 480.67L-211.115 481.101C-240.954 481.167 -253.311 477.07 -264.175 464.481C-277.826 448.658 -287.214 429.965 -295.242 410.774C-302.457 393.557 -303.651 386.873 -300.317 379.359C-294.081 365.344 -286.152 355.939 -275.156 344.942C-256.562 326.332 -253.759 326.913 -226.408 324.325C-168.405 318.835 -108.246 317.807 -49.9279 317.276C2.40246 316.795 111.956 353.435 82.9962 422.501Z" stroke="#4A9200" stroke-width="3" stroke-miterlimit="22.93"/>
<path d="M-302.145 388.233C-268.673 394.768 -240.791 399.512 -206.308 400.042C-108.066 401.585 -10.2059 403.874 87.7538 401.486" stroke="#4A9200" stroke-width="3" stroke-miterlimit="22.93"/>
<path d="M-12.3867 480.685C19.5422 483.92 56.9613 487.635 86.1038 479.358" stroke="#4A9200" stroke-width="3" stroke-miterlimit="22.93"/>
<path d="M-28.7305 604.139C0.312452 604.056 14.6598 594.966 37.9306 578.313L89.2657 541.591L88.7184 526.928" stroke="#4A9200" stroke-width="3" stroke-miterlimit="22.93"/>
<path d="M-306.602 367.947C-388.357 405.2 -479.417 442.885 -555.333 489.858C-589.169 633.248 -524.067 998.714 -409.654 1105.98L145.993 1307.79" stroke="#4A9200" stroke-width="3" stroke-miterlimit="22.93"/>
<path d="M221.989 518.123C69.0616 744.694 102.002 1037.54 102.765 1292.08" stroke="#4A9200" stroke-width="3" stroke-miterlimit="22.93"/>
<path d="M-279.479 119.78C-440.285 175.76 -575.033 229.251 -727.496 306.03C-723.515 349.884 -593.544 461.147 -555.345 489.858C-386.163 552.405 -216.832 610.873 -46.7705 670.285C10.9836 690.455 14.1516 690.173 65.354 655.59C102.989 630.179 136.792 609.131 181.509 588.249" stroke="#4A9200" stroke-width="3" stroke-miterlimit="22.93"/>
<path d="M-1111.7 882.163L-1108.05 845.142C-1113.17 743.251 -1117.62 625.139 -1050.72 542.14C-1032.91 520.031 -1015.49 507.093 -997.348 505.733C-867.542 496.063 -843.376 895.648 -841.369 1002.15C-851.039 1073.14 -850.292 1065.66 -829.576 1131.97C-515.063 1228.69 -157.824 1296.46 164.468 1369.74" stroke="#4A9200" stroke-width="3" stroke-miterlimit="22.93"/>
<path d="M164.334 1369.7C134.595 1385.71 142.274 1384.68 177.769 1408.96" stroke="#4A9200" stroke-width="3" stroke-miterlimit="22.93"/>
<path d="M895.089 1579.77C889.001 1637.08 792.966 1677.8 717.116 1673.72C642.726 1669.72 492.22 1661.26 412.273 1652.17C292.734 1638.59 241.018 1565.18 177.773 1408.96" stroke="#4A9200" stroke-width="3" stroke-miterlimit="22.93"/>
<path d="M177.771 1408.97C114.096 1156.52 140.12 636.5 505.736 676.888" stroke="#4A9200" stroke-width="3" stroke-miterlimit="22.93"/>
<path d="M99.3359 1071.96C109.221 914.141 148.697 570.568 361.684 560.766C524.215 553.285 624.464 798.782 661.004 924.142" stroke="#4A9200" stroke-width="3" stroke-miterlimit="22.93"/>
<path d="M622.02 912.432L800.722 966.586L779.74 980.884L637.13 969.058" stroke="#4A9200" stroke-width="3" stroke-miterlimit="22.93"/>
<path d="M671.086 971.995C698.984 1115.05 703.264 1250.47 707.261 1381.93C884.487 1499.08 1127.45 1517.29 1335.77 1528.8C1394.17 1507.57 1461.65 1469.62 1522.7 1443.91L1899.66 1444.36C1947.28 1444.41 1986.84 1441.51 2033.9 1433.9L1916.1 1406.23L1496.94 1404.32L1317.38 1144.94C1284.32 1097.19 1312.17 1106.93 1362.92 1113.36C1577.92 1140.65 1788.1 1165.24 2003.34 1190.61L2084.93 1182.59L2107.34 1184.98L2156.94 1205.96C2390.52 1208.19 2648.34 1204.06 2885.94 1180.17C2908.95 1177.87 2928.56 1175.63 2951.16 1170.92L2982.16 1139.2C3039.5 1120.1 3124.94 1075.69 3173.4 1040.56" stroke="#4A9200" stroke-width="3" stroke-miterlimit="22.93"/>
<path d="M3135.55 1119.99L3121.42 1073.24" stroke="#4A9200" stroke-width="3" stroke-miterlimit="22.93"/>
<path d="M3063.62 1103.56L3073.74 1284.65C3074.89 1305.03 3078.27 1311.2 3059.03 1321.2C3034.23 1334.09 2989.68 1346.78 2949.96 1347.38" stroke="#4A9200" stroke-width="3" stroke-miterlimit="22.93"/>
<path d="M1009.68 1494.95C989.61 1479.23 972.875 1464.91 956.139 1447.81C940.797 1432.12 943.882 1422.42 954.547 1404.24C1012.28 1305.83 1058.89 1249.98 1137.91 1175.36C1205.17 1111.84 1263.3 1095.31 1352.67 1073.16L2100.39 1162.81L2188.61 1186.66L2497.62 1189.53L2715.07 1181.9L2930.61 1159.01L2950.17 1156.62L2976.87 1129.43C3054.59 1097.07 3107.7 1071.71 3178.08 1024.96" stroke="#4A9200" stroke-width="3" stroke-miterlimit="22.93"/>
<path d="M1858.28 1406L2091.59 1291.1C2317.23 1281.3 2541.35 1278.71 2768.33 1267.88C2816 1265.61 2823.61 1270.02 2864.09 1294.8L2949.97 1347.36" stroke="#4A9200" stroke-width="3" stroke-miterlimit="22.93"/>
<path d="M2937.08 1338.89L2982.14 1139.2" stroke="#4A9200" stroke-width="3" stroke-miterlimit="22.93"/>
<path d="M2949.96 1347.36L3145.01 1475.38C3159.78 1485.06 3162.11 1484.32 3178.85 1479.7C3211.81 1470.62 3258.3 1457.99 3278.12 1437.59" stroke="#4A9200" stroke-width="3" stroke-miterlimit="22.93"/>
<path d="M3026.76 1397.77C3100.06 1398.95 3120.46 1391.15 3187.35 1374.26C3209.5 1368.67 3210.13 1370.96 3221.55 1390.37L3242.98 1426.76" stroke="#4A9200" stroke-width="3" stroke-miterlimit="22.93"/>
<path d="M3252.86 1427.09C3186.11 1424.95 3140.76 1427.99 3075.03 1429.45" stroke="#4A9200" stroke-width="3" stroke-miterlimit="22.93"/>
<path d="M3002.96 1382.64C3095.68 1380.5 3106.51 1378.41 3195.28 1348.09M3195.28 1348.09L3072.51 1309.93" stroke="#4A9200" stroke-width="3" stroke-miterlimit="22.93"/>
<path d="M3106.62 1081.03L3195.37 1348.84" stroke="#4A9200" stroke-width="3" stroke-miterlimit="22.93"/>
<path d="M1028.95 1498.47C1007.3 1480.27 989.987 1465.82 971.244 1446.28C957.46 1431.9 962.27 1423.26 971.642 1407.42C1027.99 1312.27 1077.12 1254.18 1154.52 1182.05C1219.26 1121.72 1272.22 1111.07 1357.66 1091.67L2097.28 1175.48L2222.69 1206.44" stroke="#4A9200" stroke-width="3" stroke-miterlimit="22.93"/>
<path d="M490.293 661.826L522.371 641.657L946.604 694.8L1692.43 886.507L2266.57 948.507L2281.53 929.084C2298.8 906.659 2299.08 908.55 2327.34 908.152L2452.77 906.361C2482.64 905.93 2495.63 911.984 2522.9 922.632L2562.24 938.008C2679.79 923.677 2764.56 907.174 2875.31 863.617C2890.27 793.556 2892.28 752.04 2880.32 681.216C2929.32 717.656 3029.07 820.476 3046.04 878.645L2998.93 931.041C2986.94 944.377 2982.83 944.377 2969.27 934.193L2875.33 863.617" stroke="#4A9200" stroke-width="3" stroke-miterlimit="22.93"/>
<path d="M603.031 424.972C1016.37 522.534 1368.81 696.46 1743.1 891.964" stroke="#4A9200" stroke-width="3" stroke-miterlimit="22.93"/>
<path d="M946.602 694.785L952.44 709.348L962.326 719.366L1218.17 892.828L1246.53 909.514L1275.15 918.338L1594.9 975.561L1619.22 974.135L1633.03 960.766L1692.43 886.492" stroke="#4A9200" stroke-width="3" stroke-miterlimit="22.93"/>
<path fill-rule="evenodd" clip-rule="evenodd" d="M989.266 726.631L1016.93 729.965L1123.98 798.882L1254.88 884.236L1273.72 894.967L1320.7 917.392L1262.99 907.606L1243.67 899.263L1217.21 883.29L989.266 726.631Z" stroke="#4A9200" stroke-width="3" stroke-miterlimit="22.93"/>
<path fill-rule="evenodd" clip-rule="evenodd" d="M1280.87 830.595L1288.5 829.649L1309.95 853.965L1309.48 893.06L1378.15 926.083L1341.18 922.998L1279.79 893.192L1280.87 830.595Z" stroke="#4A9200" stroke-width="3" stroke-miterlimit="22.93"/>
<path fill-rule="evenodd" clip-rule="evenodd" d="M1261.59 800.375L1299.1 800.192L1390.66 870.055L1530.15 952.075L1471.01 945.158L1360.39 876.49L1261.59 800.375Z" stroke="#4A9200" stroke-width="3" stroke-miterlimit="22.93"/>
<path fill-rule="evenodd" clip-rule="evenodd" d="M1511.42 858.493L1520.48 857.066L1543.85 876.622L1546.95 937.179L1587.84 960.433L1547.43 957.68L1518.09 940.994L1515.95 932.419L1511.42 858.493Z" stroke="#4A9200" stroke-width="3" stroke-miterlimit="22.93"/>
<path fill-rule="evenodd" clip-rule="evenodd" d="M1366.21 496.79L1420.1 512.05C1516.87 584.632 1600.98 658.724 1687.46 740.346C1719.71 770.766 1745.03 800.887 1773.94 834.408L1771.56 840.611H1762.5C1762.2 840.611 1674.13 754.909 1667.57 748.789C1579.02 666.072 1496.15 597.288 1387.68 523.03L1366.21 496.807V496.79Z" stroke="#4A9200" stroke-width="3" stroke-miterlimit="22.93"/>
<path fill-rule="evenodd" clip-rule="evenodd" d="M2162.35 500.125L2188.57 505.847L2227.2 517.292C2424.56 607.837 2587.34 695.862 2766.06 819.862L2768.82 824.158L2766.31 826.779C2759.78 822.3 2748.63 815.533 2740.35 809.91C2555.71 684.185 2364.42 595.215 2162.35 500.125V500.125Z" stroke="#4A9200" stroke-width="3" stroke-miterlimit="22.93"/>
<path d="M2375.12 445.723C2616.6 510.427 2740.07 657.682 2856.61 870.951" stroke="#4A9200" stroke-width="3" stroke-miterlimit="22.93"/>
<path d="M2576.79 515.551C2750.16 640.895 2761.96 662.391 2877.95 851.195" stroke="#4A9200" stroke-width="3" stroke-miterlimit="22.93"/>
<path d="M2886.18 871.895C2915.07 964.43 2944.96 1053.38 2956.66 1150.05" stroke="#4A9200" stroke-width="3" stroke-miterlimit="22.93"/>
<path d="M531.742 418.736C951.048 521.273 1322.35 686.823 1703.63 887.718" stroke="#4A9200" stroke-width="3" stroke-miterlimit="22.93"/>
<path d="M1693.45 882.327L2188.63 1186.66" stroke="#4A9200" stroke-width="3" stroke-miterlimit="22.93"/>
<path d="M1619.22 974.135L1791.24 1030.18L1935.24 1077.87L2040.15 1135.09L2100.41 1162.82" stroke="#4A9200" stroke-width="3" stroke-miterlimit="22.93"/>
<path d="M263.629 500.025C461.622 496.094 515.478 490.372 625.131 540.794C905.028 669.472 1131.35 863.153 1352.7 1073.17" stroke="#4A9200" stroke-width="3" stroke-miterlimit="22.93"/>
<path fill-rule="evenodd" clip-rule="evenodd" d="M2895.65 732.619L2894.94 714.971L2926.88 740.481C2962.36 783.606 2973.82 805.533 2991.25 858.262L3014.14 877.336L3010.33 891.65L2971.22 858.975C2954.7 822.617 2941.1 784.286 2919 750.964L2895.63 732.603L2895.65 732.619Z" stroke="#4A9200" stroke-width="3" stroke-miterlimit="22.93"/>
<path fill-rule="evenodd" clip-rule="evenodd" d="M2890.64 827.757L2891.83 807.488L2915.67 828.238C2950.18 848.556 2975.88 867.067 3005.55 894.053L2993.39 907.886C2973.89 891.466 2954.76 874.498 2934.74 858.774C2944.51 880.369 2951.76 892.129 2950.95 916.246L2923.53 897.404L2924.72 880.469L2903.26 837.079L2890.62 827.774L2890.64 827.757Z" stroke="#4A9200" stroke-width="3" stroke-miterlimit="22.93"/>
<path d="M-566.082 933.929C-589.95 943.3 -612.474 951.792 -634.551 959.886C-658.369 968.628 -673.778 984.866 -689.718 1004.72C-716.04 1037.53 -728.447 1063.83 -745.465 1102.65L-722.808 1141.76C-532.561 1213.26 -128.697 1287.49 136.023 1349.67C-60.7088 1281.65 -254.439 1212.53 -448.965 1138.41" stroke="#4A9200" stroke-width="3" stroke-miterlimit="22.93"/>
<path d="M1214.95 1136.48L1336.06 1368.59C1348.63 1392.68 1359.21 1407.49 1327.9 1416.81L1170.73 1463.55C1145.15 1471.05 1108.88 1473.9 1082.15 1472.62L994.047 1468.41" stroke="#4A9200" stroke-width="3" stroke-miterlimit="22.93"/>
<path d="M663.129 1492.96C1094.01 1554.16 1486.76 1568.26 1924.33 1563.13C1961.5 1562.7 1960.8 1561.28 1987.66 1534.99L2160.44 1365.89C2193.43 1333.59 2207.69 1332.65 2254.37 1330.77C2442.87 1323.18 2631.36 1315.46 2819.87 1307.62C2849.61 1306.38 2862.15 1305.89 2887.28 1322.18C2953.44 1365.07 3014.48 1408.03 3078.68 1454.61C3095.3 1466.67 3094.87 1468.69 3074.32 1470.15C2712.97 1495.69 2351.86 1516.81 1989.83 1532.86" stroke="#4A9200" stroke-width="3" stroke-miterlimit="22.93"/>
<path d="M2099.96 1425.01C2360.13 1415.58 2634.94 1415.35 2892.51 1390.95C2852.3 1348.24 2843.26 1333.66 2788.48 1308.93" stroke="#4A9200" stroke-width="3" stroke-miterlimit="22.93"/>
<path d="M1567.82 1138.82L1652.84 1405.05" stroke="#4A9200" stroke-width="3" stroke-miterlimit="22.93"/>
<path d="M679.199 1482.41L875.849 1508.27L1067.07 1525.44L1296.43 1542.12L1346.99 1543.08L1363.67 1536.4L1460.95 1484.9L1523.9 1456.77L1556.81 1457.25L1863.9 1458.67L1972.63 1456.77L2020.8 1452.47L2034.15 1444.84L2033.9 1433.91" stroke="#4A9200" stroke-width="3" stroke-miterlimit="22.93"/>
<path d="M1346.99 1543.08C1530.25 1544.97 1713.42 1545.64 1896.66 1546.27C1954.77 1546.47 1955.63 1546.38 1996.86 1506.08L2154.63 1351.96C2185.73 1321.59 2187.04 1321.4 2230.4 1319.43C2423.04 1310.61 2615.75 1304.42 2808.42 1295.74C2841.38 1294.27 2844.96 1293.17 2878.1 1303.39" stroke="#4A9200" stroke-width="3" stroke-miterlimit="22.93"/>
<path d="M2156.93 1205.98L2139.83 1251.44C2129.23 1279.62 2119.55 1288.33 2088.93 1289.56C2074.08 1290.15 2054.55 1290.49 2040.78 1290.65C2002.28 1291.13 1990.92 1287.32 1995.66 1250.35L2003.34 1190.63" stroke="#4A9200" stroke-width="3" stroke-miterlimit="22.93"/>
<path d="M2084.92 1182.61C2084.85 1208.55 2084.17 1232.9 2083.26 1258.67C2082.88 1269.19 2086.49 1271.94 2106.51 1272.49L2129.07 1273.1" stroke="#4A9200" stroke-width="3" stroke-miterlimit="22.93"/>
<path d="M2826.45 1185.73L2811.36 1269.52" stroke="#4A9200" stroke-width="3" stroke-miterlimit="22.93"/>
<path d="M2727.11 1193.19L2704.82 1271.18" stroke="#4A9200" stroke-width="3" stroke-miterlimit="22.93"/>
<path d="M2831.21 1185.31C2831.73 1207.39 2824.13 1256.3 2854.35 1254.21L2910.86 1250.3C2936.2 1248.54 2948.96 1244.74 2952.64 1219.65L2961.3 1160.67" stroke="#4A9200" stroke-width="3" stroke-miterlimit="22.93"/>
<path d="M2921.14 1176.5L2921.96 1212.88C2922.22 1224.27 2920.73 1239.55 2935.33 1237.16L2947.8 1235.12" stroke="#4A9200" stroke-width="3" stroke-miterlimit="22.93"/>
<path d="M410.416 1579.34C541.438 1579.34 647.653 1395.67 647.653 1169.11C647.653 942.542 541.438 758.874 410.416 758.874C279.394 758.874 173.18 942.542 173.18 1169.11C173.18 1395.67 279.394 1579.34 410.416 1579.34Z" stroke="#4A9200" stroke-width="3" stroke-miterlimit="22.93"/>
<path d="M542.01 1510.49L478.401 1495.98C459.144 1491.58 453.704 1491.28 441.231 1508.95L392.367 1578.18" stroke="#4A9200" stroke-width="3" stroke-miterlimit="22.93"/>
<path d="M376.861 1575.26L436.456 1493.16C447.768 1477.57 445.347 1476.31 442.079 1457.12L418.078 1315.83C414.91 1297.22 413.335 1295.83 420.384 1277.95L442.842 1220.97L428.296 1211.92L360.955 1238.75C345.446 1244.94 342.709 1248.04 331.878 1260.43L253.043 1350.56L273.162 1503.76" stroke="#4A9200" stroke-width="3" stroke-miterlimit="22.93"/>
<path d="M262.928 1490.45L256.625 1452.62L246.674 1381.38C243.506 1358.69 245.297 1351.89 230.867 1334.41L181.008 1274.05" stroke="#4A9200" stroke-width="3" stroke-miterlimit="22.93"/>
<path d="M178.137 1252.97L232.623 1319.78C244.698 1334.59 245.959 1335.02 258.681 1320.71L320.333 1251.38C335.161 1234.71 339.258 1231.79 357.47 1220L416.136 1182L416.617 1150.28L348.911 1102.85C333.171 1091.82 330.102 1087.29 318.691 1072.36L254.003 987.785L221.942 1017.36L181.554 1060.78" stroke="#4A9200" stroke-width="3" stroke-miterlimit="22.93"/>
<path d="M184.625 1042.87L234.782 985.496C251.452 966.438 251.386 962.176 255.283 937.379L274.126 833.282" stroke="#4A9200" stroke-width="3" stroke-miterlimit="22.93"/>
<path d="M553.337 1496.56C524.576 1491.17 499.779 1485.74 472.395 1478.51C455.775 1474.12 455.643 1461.43 453.171 1445.11L433.616 1316.01C430.813 1297.5 429.867 1293.57 437.945 1276.41L480.356 1179.86L569.741 1184.77C592.464 1186.01 590.026 1189.72 595.151 1210.94L626.268 1339.48" stroke="#4A9200" stroke-width="3" stroke-miterlimit="22.93"/>
<path d="M632.059 1315.63L602.684 1189.03L601.258 1171.4L604.111 1151.84L636.222 1042.95" stroke="#4A9200" stroke-width="3" stroke-miterlimit="22.93"/>
<path d="M286.616 819.083L260.758 965.857L323.289 1053C340.671 1077.24 349.96 1082.99 376.648 1095.71L428.862 1120.61L444.354 1112.75L427.817 1059.77C419.905 1034.41 422.625 1027.91 427.601 1002.7L451.585 881.249C455.417 861.876 456.064 863.021 445.515 846.6L390.132 760.384" stroke="#4A9200" stroke-width="3" stroke-miterlimit="22.93"/>
<path d="M403.547 759.058L454.252 833.017C464.917 848.575 465.215 852.257 484.505 849.52L552.012 839.966" stroke="#4A9200" stroke-width="3" stroke-miterlimit="22.93"/>
<path d="M563.304 855.425C532.105 857.614 497.572 855.773 469.391 869.54C458.013 917.956 445.357 969.39 437.678 1018.12C433 1047.86 432.569 1046.12 444.296 1071.56L474.483 1137.05C485.165 1160.2 484.783 1159.67 510.708 1160.88L566.969 1163.5C590.406 1164.6 588.582 1163.07 595.349 1140.56L631.507 1020.11" stroke="#4A9200" stroke-width="3" stroke-miterlimit="22.93"/>
<path fill-rule="evenodd" clip-rule="evenodd" d="M447.564 1119.56C461.978 1119.56 473.671 1140.18 473.671 1165.63C473.671 1191.07 461.978 1211.7 447.564 1211.7C433.15 1211.7 421.457 1191.07 421.457 1165.63C421.457 1140.18 433.15 1119.56 447.564 1119.56Z" stroke="#4A9200" stroke-width="3" stroke-miterlimit="22.93"/>
<path d="M578.685 1458.26L538.761 1457.99L493.928 1444.64L482.633 1334.74C478.702 1296.49 485.303 1272.64 502.868 1238.39L522.059 1200.97L593.53 1204.09" stroke="#4A9200" stroke-width="3" stroke-miterlimit="22.93"/>
<path d="M396.668 1548.21C350.89 1525.48 340.938 1517.64 306.537 1481.36C301.827 1441.37 294.562 1395.11 296.038 1354.99L359.647 1291.61C368.455 1282.84 372.22 1280.93 384.676 1280.65L419.624 1279.89" stroke="#4A9200" stroke-width="3" stroke-miterlimit="22.93"/>
<path d="M272.745 1304.84C245.908 1281.4 236.105 1259.92 220.448 1228.39C214.559 1177.68 212.071 1131.14 214.477 1080.09L273.508 1013.35" stroke="#4A9200" stroke-width="3" stroke-miterlimit="22.93"/>
<path d="M424.301 812.332C385.439 831.423 350.789 844.344 317.965 872.889C311.065 898.897 305.906 923.163 300.648 949.436L359.431 1027.77C378.074 1052.62 394.661 1052.29 424.35 1047.84" stroke="#4A9200" stroke-width="3" stroke-miterlimit="22.93"/>
<path d="M596.393 1137.11L525.519 1129.45C505.565 1127.29 498.831 1114.02 491.716 1096.82L475.328 1057.2C481.399 1003.62 489.758 950.398 502.265 897.918C536.947 890.305 558.692 887.85 583.008 887.668" stroke="#4A9200" stroke-width="3" stroke-miterlimit="22.93"/>
<path d="M1974.42 1547.88C2349.64 1534.08 2711.89 1513.26 3085.25 1483.44C3111.64 1481.33 3122.37 1468.78 3096.96 1449.64L3047.5 1411.37" stroke="#4A9200" stroke-width="3" stroke-miterlimit="22.93"/>
<path fill-rule="evenodd" clip-rule="evenodd" d="M2117.61 1221.62C2124.2 1221.62 2129.54 1227.81 2129.54 1235.45C2129.54 1243.1 2124.2 1249.29 2117.61 1249.29C2111.03 1249.29 2105.69 1243.1 2105.69 1235.45C2105.69 1227.81 2111.03 1221.62 2117.61 1221.62Z" stroke="#4A9200" stroke-width="3" stroke-miterlimit="22.93"/>
<path fill-rule="evenodd" clip-rule="evenodd" d="M2940.09 1188.78C2944.63 1188.78 2948.31 1194.47 2948.31 1201.5C2948.31 1208.53 2944.63 1214.22 2940.09 1214.22C2935.54 1214.22 2931.86 1208.53 2931.86 1201.5C2931.86 1194.47 2935.54 1188.78 2940.09 1188.78Z" stroke="#4A9200" stroke-width="3" stroke-miterlimit="22.93"/>
<path fill-rule="evenodd" clip-rule="evenodd" d="M1213.53 1063.78C1221.36 1063.78 1227.71 1070.09 1227.71 1077.85C1227.71 1085.61 1221.36 1091.91 1213.53 1091.91C1205.7 1091.91 1199.35 1085.61 1199.35 1077.85C1199.35 1070.09 1205.7 1063.78 1213.53 1063.78Z" stroke="#4A9200" stroke-width="3" stroke-miterlimit="22.93"/>
<path fill-rule="evenodd" clip-rule="evenodd" d="M2434.66 954.097L2448.26 953.384L2476.16 958.642L2505.72 992.727L2510.72 1012.51L2508.34 1028.74L2502.38 1034.46L2471.86 1022.05L2439.67 1003.23L2408.67 978.181L2398.42 965.309L2407.49 959.106L2423.46 956.004L2434.66 954.097Z" stroke="#4A9200" stroke-width="3" stroke-miterlimit="22.93"/>
<path d="M412.139 1595C548.859 1595 659.692 1403.11 659.692 1166.41C659.692 929.699 548.859 737.811 412.139 737.811C275.419 737.811 164.586 929.699 164.586 1166.41C164.586 1403.11 275.419 1595 412.139 1595Z" stroke="#4A9200" stroke-width="3" stroke-miterlimit="22.93"/>
</g>
</svg>
