<?xml version="1.0" encoding="UTF-8"?>
<svg id="Layer_2" data-name="Layer 2" xmlns="http://www.w3.org/2000/svg" viewBox="0 0 1697.39 1241.91">
  <defs>
    <style>
      .cls-1 {
        fill: #000001;
      }

      .cls-1, .cls-2 {
        fill-rule: evenodd;
      }

      .cls-2 {
        fill: #f6cb11;
      }
    </style>
  </defs>
  <g id="Layer_1-2" data-name="Layer 1">
    <g>
      <path class="cls-2" d="m929.44,841.99c11.46-1.05,9.06-1.08,20.77-.02.36,15.22.96,86.17-.33,94.99-7.2.11-14.85,1.07-20.29-.75l-.15-94.22h0Zm767.95-560.82c-.1-1.3-.23-2.59-.42-3.85-1.09-7.21.07-14.87-.98-22.03-7.77-53.38-26.99-103.81-61.38-145.66-1.84-2.24-2.98-3.92-4.98-6.02-9.64-10.11-17.57-20.45-28.84-29.18l-12.42-10.58c-4.33-3.38-8.58-6.68-13-10-17.75-13.36-38.33-24.14-59.44-32.58-23.29-9.31-44.65-14.67-73.14-18.88-56.23-8.32-108.34,6.95-161.41,17.54l-306.07,62.01c-25.31,5.06-51.18,9.67-76.68,15.34-42.86,9.54-112.36,22.79-155.29,28.75-53.48,7.42-106.77,18.89-160.2,24.84-12.88,1.43-27.12,3.79-39.41,6.6-35.22,8.08-71.07,20.12-102.29,35.74l-15.54,7.47c-4.84,2.97-10.09,5.41-14.85,8.15-62.77,36.19-101.6,69.28-154.23,121.83-1.95,1.95-3.7,3.45-5.46,5.55l-37.62,43.4c-31.42,38.98-59.13,80.17-84.9,123.14-18.47,30.8-39.98,73.95-53.67,107.36-4.54,11.07-9,21.18-13.44,32.57-4.47,11.46-7.81,22.17-12.28,33.73-9.49,24.49-25.06,82.38-30.35,107.68C7.81,838.06,0,892.42,0,950.06c0,30.06,4.78,56.27,10.99,80.03,10.14,38.74,29.86,73.5,54.45,104.59,7.85,9.93,17.29,21.22,27.16,28.85,2.78,2.15,3.72,3.65,6.18,5.82l12.68,10.33c12.86,10.1,26.31,19.25,40.91,27.11,55.56,29.91,122.62,42.07,186.59,31.21,25.36-4.31,51.01-10.4,76.56-15.46l416.93-84.18c26.32-5.26,50.22-10.76,76.6-14.42,12.65-1.76,27.05-4.46,39.46-6.55l118.03-19c13.49-2.27,26.93-4.4,40.01-6l39.3-5.71c18.56-3.74,36.38-8.05,53.83-14.19,5.95-2.09,11.18-4.42,16.74-6.27,16.45-5.46,32.61-12.98,48.22-20.79,15.09-7.55,30.15-15.47,44.27-24.74,15.95-10.48,31.78-20.61,47-32.02,12.35-9.26,32.63-25.57,43.69-36.32,4.3-4.18,7.78-6.79,11.99-11.02l34.01-34.01c2.07-2.07,3.48-3.42,5.52-5.48,13.85-14,34.77-41.18,47.47-56.55l19.35-25.66c39.29-54.33,72.17-113.44,99.46-174.61,34.94-78.31,60.16-161.06,72.71-246.36,4.49-30.5,7.29-65.65,7.29-98.73v-18.74h0Zm-392.2,559.43c29.6-5.81,49.65,14.63,52.59,40.09,6.39,55.17-44.35,71.05-72.09,48.99-23.9-19-26.39-80.07,19.5-89.08h0Zm-206.49,10.11c2.77-.31,8.14-5.86,13.17-8.06,14.28-6.26,37.19-3.7,42.64,15.13,3.23,11.17,4.01,66.64,2.16,78.27-2.83,1.51-6.99,1.01-10.41,1.02-4.15.01-5.12.49-8.53-.61-4.82-1.54-2.21-41.94-2.21-49.43,0-16.16,2.26-29.92-17.26-30.04-7.57-.05-14,4.25-16.74,8.33-5.49,8.17.37,52.75-2.64,71.69l-20.74-.09.13-94.96c4.78-.78,13.88-1.07,19.43.04l1.02,8.7h0Zm-732.81,55.58c1.25,12.38-9.11,21.77-15.5,26.07-20.27,13.65-66.54,10.04-66.35-44.33.23-65.97,82.56-59.16,82.11-12.46l-19.43-.38c-1.38-6.91-3.24-12.02-7.86-14.96-11.83-7.53-33.39-6.01-33.67,28.81-.29,36.57,23.14,36.49,33.08,30.2,6.15-3.89,5.81-6.95,8.97-13.19l18.65.24h0Zm129.09-37.26c-1.88-27.56,46.91-38.88,66.41-20.26,13.41,12.81,9.42,41.17,9.5,66.23.03,9.8,2.83,15.35,2.96,22.03l-21.04-.06-2.96-7.59c-5.21,2.82-7.9,6.18-14.91,8.51-13.86,4.6-39.54-2.14-42.43-24.21-1.88-14.35,6.97-24.8,15.82-29.41,12.63-6.57,25.44-4.2,40.43-5.61,2.72-11.56-1.4-20.87-11.77-22.5-15.97-2.5-18.72,5.92-22.07,12.79l-19.95.07h0Zm230.94,38.26c1.39,5.61,2.7,9.12,6.9,12.11,3.91,2.79,9.13,4.14,15.38,3.85,17.13-.79,18.3-13.44,13.62-18.85-7.87-9.09-38.32-6.03-49.8-24.19-5.79-9.16-2.21-21.89,3.14-28.23,5.46-6.47,14.75-10.93,25.05-11.92,15.7-1.51,32.27,2.98,40.19,15.76,1.27,2.05,2.11,4,2.77,6.29,1.55,5.3.57,5.58.56,5.72l-.42,2.05-19.81-.17c-2.01-6.33-2.75-8.99-7.42-11.61-16.97-9.53-35.96,8.78-21.7,17.75,5.91,3.72,21.07,6.02,29.13,8.86,36.3,12.83,25.18,52.35-14.31,54.28-15.26.74-31.92-4.71-39.3-17.67-6.03-10.58-3.06-12.35-2.64-13.98l18.67-.07h0Zm209.32-101.56c16.6-5.73,22.16,16.37,10.51,20.81-17.38,6.62-24.75-15.9-10.51-20.81h0Zm-40.03-28.72c-119.72,0-208.4-83.13-204.53-205.05,1.12-35.26,2.34-58.09,12.94-89.55,26.05-77.26,89.3-123.64,182.59-123.64,113.34,0,181.79,78.82,181.79,193.19v52.01c0,4.19-1.22,3.14-5.75,3.14h-236.05c-9.29,0-8.55.47-5.87,9.71,1.29,4.44,3.14,9.87,5.04,14.01,4.5,9.78,9.08,16.34,14.97,23.01,10.79,12.24,27.82,21.94,50.61,25.39,22.34,3.39,45.78-.17,65.48-8.02,21.32-8.49,29.06-17.78,43.54-31.86,2.76,1.78,24.06,27.92,28.7,33.19l27.69,33.45c-3.1,8.3-20.73,23.81-27.81,29.34-35.87,28.05-85.42,41.67-133.35,41.67h0Zm243.95-411.01c1.1-11.3.35-66.25.35-82.11,0-11.84-1.88-16.95,2.75-17.96l101.02-.04c25.1,0,21.76-5.16,21.76,19,0,25.02-1.71,56.79.28,80.99,17.55,1.78,51.52-2.4,65.88,1.04.35,13.89.8,75.71-.4,85.86l-65.33.45c-1.55,16.67-.44,159.04-.44,187.75,0,38.95,21.47,37.87,52.26,37.87,6.88,0,14.49-1.89,17.76-1.21l1.36,88.38c-16.57,6.93-45.56,10.74-66.12,10.74-39.38,0-67.81-4.71-94.87-25.91-22-17.24-32.04-48.01-34.86-76.1-3.95-39.3,1.39-204.34-1.53-221.64l-50.61-.42c-1.1-20.24-.31-57.77-.31-79.77,0-8.95-1.02-6.75,22.15-6.75,9.37,0,19.64.4,28.9-.16h0Zm-826.09,7.91c0-5.64-1.01-8,5-8h320.07c6.74,0,5.14.58,5.14,6l.28,48.01c0,13.72.68,13.32-5.89,21.56l-172.29,229.61c2.82,2.05,3.13,1.15,6.71,1.15l175.34.39c.94,15.62,1.09,81.66-.13,96.36l-341.56.18c-1.14-15.89-.44-47.69-.44-65.16,0-5.87,6.8-13.11,9.73-17.03l33.51-44.52c15.31-20.27,29.85-39.59,45.32-59.67,5.15-6.68,88.14-114.38,89.19-119.82-48.23,1.32-114.8.12-165.01.12-5.75,0-5-1.24-5-7.14v-82.02Z"/>
      <path class="cls-1" d="m823.19,528.82c-7.04,0-4.35-4.83-3.1-10.91,2.84-13.89,7.36-27.68,15.25-38.83,13.71-19.4,29.95-23.71,52.87-23.71,60.3,0,59.68,64.92,56.15,73.18-20.63,1.36-95.2.27-121.16.27h0Zm72.02,248.2c47.93,0,97.48-13.63,133.35-41.67,7.07-5.53,24.7-21.05,27.81-29.34l-27.69-33.45c-4.64-5.27-25.94-31.41-28.7-33.19-14.48,14.08-22.22,23.36-43.54,31.86-19.7,7.85-43.14,11.4-65.48,8.02-22.8-3.45-39.82-13.15-50.61-25.39-5.88-6.67-10.47-13.23-14.97-23.01-1.9-4.13-3.75-9.57-5.04-14.01-2.69-9.24-3.42-9.71,5.87-9.71h236.05c4.53,0,5.75,1.04,5.75-3.14v-52.01c0-114.36-68.45-193.19-181.79-193.19-93.29,0-156.54,46.38-182.59,123.64-10.61,31.46-11.83,54.29-12.94,89.55-3.87,121.92,84.81,205.05,204.53,205.05Z"/>
      <path class="cls-1" d="m313.07,373.92v82.02c0,5.9-.75,7.14,5,7.14,50.21,0,116.78,1.2,165.01-.12-1.05,5.44-84.04,113.13-89.19,119.82-15.47,20.08-30.02,39.41-45.32,59.67l-33.51,44.52c-2.94,3.92-9.73,11.16-9.73,17.03,0,17.47-.7,49.28.44,65.16l341.56-.18c1.22-14.7,1.08-80.74.13-96.36l-175.34-.39c-3.58,0-3.89.9-6.71-1.15l172.29-229.61c6.56-8.23,5.89-7.84,5.89-21.56l-.28-48.01c0-5.43,1.6-6-5.14-6h-320.07c-6.01,0-5,2.36-5,8Z"/>
      <path class="cls-1" d="m1139.16,366.01c-9.26.56-19.53.16-28.9.16-23.17,0-22.15-2.2-22.15,6.75,0,22-.78,59.54.31,79.77l50.61.42c2.93,17.29-2.42,182.34,1.53,221.64,2.82,28.08,12.86,58.86,34.86,76.1,27.06,21.2,55.49,25.91,94.87,25.91,20.57,0,49.56-3.81,66.12-10.74l-1.36-88.38c-3.27-.67-10.88,1.21-17.76,1.21-30.79,0-52.26,1.08-52.26-37.87,0-28.71-1.11-171.08.44-187.75l65.33-.45c1.21-10.14.75-71.97.4-85.86-14.37-3.45-48.33.73-65.88-1.04-1.99-24.2-.28-55.97-.28-80.99,0-24.16,3.34-19-21.76-19l-101.02.04c-4.63,1.01-2.75,6.12-2.75,17.96,0,15.85.75,70.81-.35,82.11Z"/>
      <path class="cls-2" d="m823.19,528.82c25.96,0,100.53,1.1,121.16-.27,3.53-8.26,4.15-73.18-56.15-73.18-22.92,0-39.16,4.31-52.87,23.71-7.88,11.15-12.4,24.94-15.25,38.83-1.25,6.08-3.94,10.91,3.1,10.91Z"/>
      <path class="cls-1" d="m549.17,892.18c1.06,13.8,2.41,19.46-6.26,25.65-20.85,14.89-40.68-9.54-22.74-21.75,7.31-4.97,19.13-3.97,29-3.9h0Zm-54.2-23.15l19.95-.07c3.34-6.87,6.1-15.29,22.07-12.79,10.37,1.62,14.49,10.94,11.77,22.5-14.98,1.41-27.8-.97-40.43,5.61-8.86,4.61-17.7,15.06-15.82,29.41,2.89,22.07,28.57,28.81,42.43,24.21,7.01-2.33,9.7-5.69,14.91-8.51l2.96,7.59,21.04.06c-.13-6.69-2.93-12.24-2.96-22.03-.08-25.06,3.91-53.42-9.5-66.23-19.49-18.62-68.29-7.3-66.41,20.26Z"/>
      <path class="cls-1" d="m1307.49,857.78c34.99-11.13,39.05,56.15,13.14,63.56-18.34,5.25-28.62-8.76-29.92-24.47-1.27-15.33.55-33.92,16.78-39.09h0Zm-2.31-17.18c-45.89,9.01-43.4,70.07-19.5,89.08,27.74,22.06,78.48,6.18,72.09-48.99-2.95-25.46-22.99-45.9-52.59-40.09Z"/>
      <path class="cls-1" d="m1098.7,850.71l-1.02-8.7c-5.54-1.11-14.64-.82-19.43-.04l-.13,94.96,20.74.09c3.01-18.94-2.84-63.52,2.64-71.69,2.74-4.08,9.17-8.38,16.74-8.33,19.52.13,17.26,13.89,17.26,30.04,0,7.49-2.61,47.89,2.21,49.43,3.42,1.09,4.38.62,8.53.61,3.42-.01,7.58.49,10.41-1.02,1.86-11.64,1.08-67.1-2.16-78.27-5.45-18.84-28.36-21.39-42.64-15.13-5.03,2.2-10.4,7.75-13.17,8.06Z"/>
      <path class="cls-1" d="m725.92,907.3l-18.67.07c-.41,1.63-3.39,3.39,2.64,13.98,7.38,12.96,24.04,18.41,39.3,17.67,39.48-1.92,50.6-41.45,14.31-54.28-8.06-2.85-23.22-5.14-29.13-8.86-14.26-8.97,4.73-27.29,21.7-17.75,4.67,2.63,5.41,5.28,7.42,11.61l19.81.17.42-2.05c.01-.14.99-.42-.56-5.72-.67-2.29-1.51-4.24-2.77-6.29-7.92-12.78-24.49-17.27-40.19-15.76-10.3.99-19.59,5.45-25.05,11.92-5.34,6.34-8.93,19.07-3.14,28.23,11.48,18.16,41.93,15.1,49.8,24.19,4.69,5.41,3.51,18.06-13.62,18.85-6.25.29-11.47-1.06-15.38-3.85-4.2-2.99-5.51-6.5-6.9-12.11Z"/>
      <path class="cls-1" d="m365.88,906.3l-18.65-.24c-3.16,6.24-2.82,9.3-8.97,13.19-9.94,6.29-33.37,6.37-33.08-30.2.28-34.81,21.83-36.34,33.67-28.81,4.62,2.94,6.48,8.05,7.86,14.96l19.43.38c.45-46.7-81.88-53.51-82.11,12.46-.19,54.37,46.08,57.98,66.35,44.33,6.39-4.3,16.75-13.69,15.5-26.07Z"/>
      <path class="cls-2" d="m1307.49,857.78c-16.23,5.16-18.05,23.76-16.78,39.09,1.3,15.72,11.58,29.72,29.92,24.47,25.91-7.41,21.85-74.69-13.14-63.56Z"/>
      <path class="cls-1" d="m929.44,841.99l.15,94.22c5.45,1.82,13.09.86,20.29.75,1.29-8.82.69-79.77.33-94.99-11.72-1.06-9.32-1.03-20.77.02Z"/>
      <path class="cls-2" d="m549.17,892.18c-9.87-.07-21.69-1.07-29,3.9-17.94,12.21,1.88,36.64,22.74,21.75,8.67-6.19,7.32-11.85,6.26-25.65Z"/>
      <path class="cls-1" d="m935.24,805.74c-14.25,4.91-6.88,27.43,10.51,20.81,11.66-4.44,6.1-26.54-10.51-20.81Z"/>
    </g>
  </g>
</svg>