<svg width="41" height="56" viewBox="0 0 41 56" fill="none" xmlns="http://www.w3.org/2000/svg">
<g clip-path="url(#clip0_564_8765)">
<path d="M1.04297 56.0004H39.9399V45.5646H12.4274V39.8724C12.4274 37.8168 13.5342 37.5006 15.5898 36.71L28.3973 31.9665C35.1173 29.5157 39.7818 26.9067 39.7818 20.582V11.7274C39.7818 4.21683 36.2241 0.65918 28.7135 0.65918H12.7437C5.23309 0.65918 1.67544 4.21683 1.67544 11.7274V17.894H12.7437V12.6761C12.7437 11.4902 13.1389 11.0949 14.3248 11.0949H26.8161C28.002 11.0949 28.3973 11.4902 28.3973 12.6761V18.0521C28.3973 20.1077 27.2905 20.4239 25.2349 21.2145L12.4274 25.958C5.70744 28.4088 1.04297 31.0178 1.04297 37.3425V56.0004Z" fill="#E9C016"/>
</g>
<defs>
<clipPath id="clip0_564_8765">
<rect width="40.6275" height="56" fill="white"/>
</clipPath>
</defs>
</svg>
