<svg width="40" height="56" viewBox="0 0 40 56" fill="none" xmlns="http://www.w3.org/2000/svg">
<g clip-path="url(#clip0_564_8763)">
<path d="M11.2176 56.0004H28.6533C36.0479 56.0004 39.5506 52.4427 39.5506 44.9321V36.2357C39.5506 32.3618 37.916 29.4366 34.0241 27.6973C37.6047 25.7208 38.9279 23.0328 38.9279 19.1589V11.7274C38.9279 4.21683 35.4252 0.65918 28.0306 0.65918H11.8403C4.44571 0.65918 0.943015 4.21683 0.943015 11.7274V17.7359H12.1517V12.518C12.1517 11.3321 12.5409 10.9368 13.7084 10.9368H26.1625C27.3301 10.9368 27.7193 11.3321 27.7193 12.518V21.0564C27.7193 22.2422 27.3301 22.6375 26.1625 22.6375H13.7863V32.7571H26.7852C27.9528 32.7571 28.342 33.1524 28.342 34.3382V44.1415C28.342 45.3274 27.9528 45.7227 26.7852 45.7227H13.0857C11.9182 45.7227 11.529 45.3274 11.529 44.1415V38.9237H0.320312V44.9321C0.320312 52.4427 3.82301 56.0004 11.2176 56.0004Z" fill="#E9C016"/>
</g>
<defs>
<clipPath id="clip0_564_8763">
<rect width="40" height="56" fill="white"/>
</clipPath>
</defs>
</svg>
