<svg width="226" height="96" viewBox="0 0 226 96" fill="none" xmlns="http://www.w3.org/2000/svg">
<path d="M145.274 38.9131C148.684 36.811 150.389 39.36 154.825 38.7807C159.294 38.1848 160.535 32.0607 160.535 32.0607C160.535 32.0607 157.771 34.5931 154.759 34.891C152.375 35.1393 150.108 31.4483 146.168 31.3986C141.07 31.3324 139.465 33.5172 136.585 35.3876C135.923 35.8179 135.261 36.0828 134.714 36.2483C134.417 35.5862 134.119 34.9572 133.754 34.3448L147.261 17.6276L128.276 27.8566C128.276 27.8566 128.193 27.7738 128.127 27.7407C130.345 23.9669 128.044 19.4648 128.64 16.1545C129.352 12.1655 132.364 12.5793 134.863 8.80552C137.379 5.03172 133.672 0 133.672 0C133.672 0 133.721 3.77379 131.934 6.2731C130.527 8.24276 126.323 7.54759 123.674 10.5103C120.265 14.3338 120.811 16.9821 120.281 20.3917C120.083 21.749 119.586 22.7255 119.073 23.3545C118.676 23.2717 118.262 23.1724 117.848 23.1062L113.594 0.811035L109.159 22.5269C107.834 18.091 102.77 17.0317 100.568 14.3834C98.0027 11.2883 100.237 9.20276 98.9627 4.8331C97.6717 0.48 91.4979 0.165517 91.4979 0.165517C91.4979 0.165517 94.3945 2.54897 95.1558 5.52828C95.7517 7.87862 92.5241 10.709 93.0869 14.6648C93.7986 19.7793 96.1986 21.0372 98.4496 23.6193C99.9227 25.291 100.105 26.8469 100.055 27.7407C99.8069 27.9228 99.5917 28.1214 99.36 28.3366L78.6372 17.6772L92.7889 34.5766C88.5186 32.9048 84.5958 36.3145 81.1696 36.4303C77.1641 36.5959 76.9324 33.5172 72.7448 31.8455C68.5738 30.1738 64.5352 34.9076 64.5352 34.9076C64.5352 34.9076 68.1765 34.0469 70.9407 35.2717C73.1586 36.2483 73.3572 40.5683 76.7834 42.5545C81.2027 45.1366 83.6689 43.9945 87.062 43.7959C89.5117 43.6303 90.8855 44.6566 91.4648 45.2193V45.8483L70.0469 55.6635L91.9283 55.051C87.9724 57.3517 88.1379 62.6152 86.0855 65.3959C83.702 68.6565 81.1696 66.9186 77.2634 69.1697C73.3572 71.4372 74.4662 77.5945 74.4662 77.5945C74.4662 77.5945 76.0717 74.2014 78.7696 72.7448C80.8883 71.6193 84.3476 74.1517 88.0386 72.6786C92.7889 70.8083 93.4345 68.16 95.4372 65.3297C96.7117 63.5255 98.1352 62.9793 98.9958 62.7972C99.1779 62.9628 99.3269 63.0952 99.5089 63.2441L93.8814 85.8538L107.04 68.1434C106.345 72.7117 110.499 75.8565 111.393 79.2331C112.419 83.1393 109.523 84.0828 108.828 88.5848C108.132 93.0869 113.578 96.0331 113.578 96.0331C113.578 96.0331 111.956 92.64 112.535 89.611C112.982 87.211 117.087 86.0524 118.245 82.229C119.735 77.2966 118.113 75.1283 117.17 71.8014C116.789 70.4441 116.839 69.3517 117.021 68.5407C117.799 68.4579 118.56 68.2924 119.305 68.1269L133.639 85.6386L127.299 64.4855C127.299 64.4855 127.316 64.4855 127.316 64.469C130.56 67.68 135.492 66.1407 138.654 67.4152C142.378 68.8883 141.401 71.8014 144.596 75.0124C147.774 78.2234 153.352 75.509 153.352 75.509C153.352 75.509 149.694 74.8303 147.608 72.5959C145.953 70.8083 147.459 66.7862 145.109 63.5752C142.047 59.4372 139.365 59.4869 136.171 58.2952C135.194 57.931 134.466 57.451 133.953 56.9876C134.317 56.3255 134.648 55.6469 134.93 54.9683L156.563 54.1241L136.8 46.5931V46.1793C140.706 45.1366 142.477 40.651 145.241 38.9462L145.274 38.9131ZM136.916 37.5393C140.094 35.3048 141.898 33.6662 144.53 33.3517C147.674 32.9876 149.197 34.08 149.197 34.08C149.197 34.08 143.834 32.8386 141.285 36.3641C139.945 38.2179 138.108 39.7407 136.154 40.5683C135.972 39.8069 135.774 39.0455 135.525 38.3338C135.956 38.1517 136.419 37.8869 136.916 37.5393V37.5393ZM131.404 30.9848C131.023 30.5048 130.593 30.0579 130.179 29.6276L141.137 22.8248L131.404 30.9848V30.9848ZM122.069 21.5669C122.516 17.6772 122.499 15.2276 124.005 13.0097C125.81 10.3614 127.647 9.94759 127.647 9.94759C127.647 9.94759 123.178 13.1752 124.088 17.4786C124.618 19.9945 124.452 22.7255 123.525 24.8938C122.83 24.5793 122.119 24.2814 121.374 24.0166C121.672 23.3876 121.937 22.5931 122.036 21.5503L122.069 21.5669ZM113.578 22.8083C112.916 22.8248 112.254 22.8745 111.608 22.9407L113.578 8.88828V22.8083V22.8083ZM100.469 22.9738C97.8041 20.1435 95.9172 18.5876 95.2055 16.0055C94.3614 12.9103 95.2055 11.2055 95.2055 11.2055C95.2055 11.2055 94.8083 16.7503 98.6648 18.7697C101.297 20.1434 103.514 22.4772 104.408 24.9931C103.663 25.3572 102.952 25.7379 102.257 26.1683C102.074 25.3738 101.661 24.2483 100.469 22.9738V22.9738ZM96.2483 31.5972C95.8179 32.1434 95.4207 32.7062 95.04 33.3021L84.8772 22.6262L96.2483 31.6138V31.5972ZM87.7903 41.7766C83.9503 42.1572 81.5834 42.72 79.1338 41.6938C76.1876 40.469 75.4096 38.7476 75.4096 38.7476C75.4096 38.7476 79.4979 42.4883 83.4207 40.651C86.2345 39.3434 89.611 39.029 92.16 40.0386C91.9614 40.8497 91.7958 41.6607 91.6634 42.5214C90.9683 42.0414 89.7434 41.5779 87.8069 41.7766H87.7903ZM91.8952 50.4166C92.0276 51.1117 92.2096 51.7903 92.4083 52.4524L77.7434 53.7931L91.8952 50.4166V50.4166ZM94.3117 63.4924C92.1931 66.7697 91.1338 68.9876 88.8331 70.2786C86.0358 71.8345 84.2317 71.3876 84.2317 71.3876C84.2317 71.3876 89.6607 70.5103 90.7034 66.2234C91.4483 63.211 93.2689 60.3807 95.5862 58.9903C96.0496 59.669 96.5627 60.331 97.1089 60.9435C96.331 61.2579 95.2717 61.9697 94.2952 63.4924H94.3117ZM103.134 65.8428C103.713 66.1572 104.292 66.4552 104.905 66.72L97.2248 78.5545L103.15 65.8428H103.134ZM114.985 71.4703C116.21 75.1779 117.269 77.3959 116.822 80.0441C116.292 83.2055 114.819 84.3807 114.819 84.3807C114.819 84.3807 117.517 79.531 114.869 76.0552C113.214 73.8538 112.204 71.1062 112.254 68.6069C112.85 68.6566 113.462 68.6731 114.058 68.6731H114.571C114.554 69.4014 114.637 70.3283 115.001 71.4538L114.985 71.4703ZM129.765 78.5214L123.377 66.6703C123.956 66.4055 124.519 66.1241 125.081 65.8097L129.765 78.5214ZM134.582 59.7848C138.273 60.9766 140.657 61.4069 142.494 63.3435C144.712 65.6441 144.778 67.5476 144.778 67.5476C144.778 67.5476 142.494 62.4828 138.174 62.5986C135.691 62.6648 133.142 61.9862 131.255 60.7283C131.768 60.1324 132.232 59.5366 132.662 58.8745C133.175 59.2221 133.804 59.5366 134.599 59.8014L134.582 59.7848ZM148.634 52.8166L136.171 50.8469C136.303 50.251 136.419 49.6717 136.502 49.0593L148.634 52.8166V52.8166Z" fill="url(#paint0_linear_151_289)"/>
<path d="M11.4207 51.2443V52.6512C11.4207 53.3629 11.2717 54.025 10.9738 54.6705C10.6924 55.2829 10.3117 55.8457 9.79862 56.3422C9.28552 56.8388 8.68965 57.2195 7.99448 57.534C7.33241 57.8153 6.60414 57.9478 5.80965 57.9478C5.14759 57.9478 4.45241 57.865 3.77379 57.6995C3.07862 57.534 2.46621 57.236 1.90345 56.8057C1.35724 56.3753 0.893793 55.8291 0.513103 55.1671C0.165517 54.4884 0 53.6278 0 52.5684V40.0222C0 39.2774 0.132414 38.5822 0.413793 37.9367C0.695172 37.2912 1.07586 36.745 1.58897 36.265C2.10207 35.8015 2.69793 35.4374 3.3931 35.1726C4.10483 34.8912 4.89931 34.7588 5.74345 34.7588C7.39862 34.7588 8.75586 35.2553 9.79862 36.265C10.3117 36.7615 10.6924 37.3409 10.9738 38.0195C11.2717 38.6815 11.4207 39.4098 11.4207 40.1878V41.4622H7.89517V40.3698C7.89517 39.7243 7.69655 39.1781 7.29931 38.6981C6.90207 38.2347 6.37241 37.9864 5.71034 37.9864C4.8331 37.9864 4.23724 38.2347 3.93931 38.7478C3.65793 39.2443 3.52552 39.8733 3.52552 40.6347V52.2871C3.52552 52.9491 3.67448 53.4953 3.97241 53.9588C4.30345 54.4057 4.86621 54.6374 5.66069 54.6374C5.89241 54.6374 6.14069 54.6043 6.38896 54.5381C6.67034 54.4553 6.91862 54.3229 7.15034 54.1574C7.36552 53.9919 7.53103 53.7602 7.66345 53.4457C7.79586 53.1478 7.87862 52.7671 7.87862 52.3202V51.1947H11.4041L11.4207 51.2443Z" fill="white"/>
<path d="M40.9307 49.7713L39.1928 41.512H39.1266L37.3886 49.7713H40.9142H40.9307ZM32.208 57.7326L37.7031 34.9409H40.6493L46.1445 57.7326H42.619L41.5762 52.8333H36.7597L35.7169 57.7326H32.1914H32.208Z" fill="white"/>
<path d="M77.444 41.5119H73.9185V40.7836C73.9185 40.0388 73.7198 39.3933 73.3226 38.8636C72.9585 38.3009 72.313 38.036 71.4192 38.036C70.9392 38.036 70.5419 38.1188 70.244 38.2843C69.9461 38.4498 69.6978 38.665 69.5157 38.9298C69.3336 39.2112 69.2012 39.5257 69.135 39.8898C69.0688 40.2374 69.0357 40.6015 69.0357 40.9822C69.0357 41.4291 69.0357 41.8098 69.0688 42.1078C69.1185 42.4057 69.2012 42.6705 69.3502 42.9022C69.4992 43.134 69.6812 43.3326 69.9461 43.5147C70.2274 43.6802 70.5916 43.8622 71.055 44.0278L73.753 45.0209C74.5309 45.3022 75.1764 45.6333 75.6564 46.014C76.1364 46.3781 76.5171 46.8084 76.7985 47.2884C77.0467 47.8015 77.2288 48.3809 77.3116 49.0429C77.4109 49.6884 77.444 50.4167 77.444 51.2443C77.444 52.2043 77.3447 53.0981 77.1295 53.9257C76.9143 54.7367 76.5833 55.4319 76.1198 56.0112C75.6398 56.6071 74.9943 57.0705 74.2164 57.4181C73.4385 57.7657 72.4785 57.9312 71.3364 57.9312C70.4757 57.9312 69.6812 57.7988 68.953 57.5174C68.2247 57.236 67.5792 56.8553 67.0495 56.3588C66.5198 55.8622 66.0895 55.2995 65.775 54.6705C65.4771 54.0084 65.3281 53.2967 65.3281 52.5188V51.3105H68.8536V52.3367C68.8536 52.9326 69.0357 53.4788 69.3998 53.9753C69.7971 54.4388 70.4426 54.6871 71.3364 54.6871C71.9323 54.6871 72.3957 54.6043 72.7267 54.4553C73.0743 54.2898 73.3392 54.0581 73.5212 53.7436C73.7033 53.4457 73.8026 53.0981 73.8357 52.6843C73.8854 52.254 73.9019 51.7905 73.9019 51.2774C73.9019 50.6815 73.8854 50.185 73.8357 49.8043C73.7861 49.4236 73.7033 49.1091 73.5543 48.8774C73.3888 48.6457 73.1736 48.4471 72.8923 48.2981C72.644 48.1491 72.2964 47.9836 71.8495 47.8181L69.3171 46.8581C67.7943 46.2788 66.7681 45.5174 66.2385 44.5905C65.7254 43.6305 65.4771 42.4388 65.4771 40.9988C65.4771 40.1381 65.6095 39.3271 65.8578 38.5657C66.1061 37.8043 66.4867 37.1422 66.9998 36.5795C67.4798 36.0167 68.0923 35.5864 68.8371 35.2719C69.5985 34.9243 70.4923 34.7588 71.535 34.7588C72.4123 34.7588 73.2067 34.9078 73.9185 35.2057C74.6633 35.5036 75.2923 35.9009 75.8219 36.3974C76.8812 37.4236 77.4109 38.5988 77.4109 39.9229V41.5284L77.444 41.5119Z" fill="white"/>
<path d="M98.332 57.7326V34.9409H101.858V57.7326H98.332Z" fill="white"/>
<path d="M119.156 57.7326V34.9409H122.549L127.879 48.6788H127.945V34.9409H131.471V57.7326H128.144L122.748 44.0278H122.682V57.7326H119.156Z" fill="white"/>
<path d="M153.98 40.3202C153.98 39.4098 154.146 38.5988 154.494 37.8871C154.841 37.1753 155.305 36.596 155.884 36.1326C156.43 35.6857 157.059 35.3381 157.754 35.1064C158.466 34.8746 159.178 34.7588 159.906 34.7588C160.634 34.7588 161.329 34.8746 162.025 35.1064C162.736 35.3381 163.382 35.6857 163.961 36.1326C164.507 36.596 164.971 37.1919 165.318 37.8871C165.666 38.5822 165.832 39.4098 165.832 40.3202V52.3533C165.832 53.3133 165.649 54.1409 165.318 54.8195C164.971 55.4981 164.524 56.0609 163.961 56.5078C163.382 56.9712 162.736 57.3353 162.025 57.5671C161.329 57.7988 160.634 57.9147 159.906 57.9147C159.178 57.9147 158.483 57.7988 157.754 57.5671C157.059 57.3353 156.447 56.9878 155.884 56.5078C155.305 56.0609 154.841 55.4981 154.494 54.8195C154.146 54.1409 153.98 53.3133 153.98 52.3533V40.3202ZM157.506 52.3533C157.506 53.1478 157.738 53.7271 158.201 54.1078C158.681 54.4719 159.244 54.654 159.889 54.654C160.535 54.654 161.081 54.4719 161.545 54.1078C162.025 53.7271 162.273 53.1312 162.273 52.3533V40.3202C162.273 39.5257 162.025 38.9629 161.545 38.5988C161.081 38.2181 160.535 38.0195 159.889 38.0195C159.244 38.0195 158.681 38.2181 158.201 38.5988C157.738 38.9629 157.506 39.5422 157.506 40.3202V52.3533Z" fill="white"/>
<path d="M184.302 57.7326V34.9409H187.827V54.472H194.812V57.7326H184.285H184.302Z" fill="white"/>
<path d="M216.729 57.7326V48.0995L211.879 34.9409H215.62L218.45 43.9947H218.516L221.346 34.9409H225.087L220.238 48.0995V57.7326H216.712H216.729Z" fill="white"/>
<defs>
<linearGradient id="paint0_linear_151_289" x1="172.717" y1="51.7076" x2="52.5021" y2="42.6207" gradientUnits="userSpaceOnUse">
<stop stop-color="#A87A03"/>
<stop offset="0.48" stop-color="#E9C016"/>
<stop offset="0.99" stop-color="#F8E18E"/>
</linearGradient>
</defs>
</svg>
