<svg width="41" height="52" viewBox="0 0 41 52" fill="none" xmlns="http://www.w3.org/2000/svg">
<path d="M2.304 52.0003V44.4403L21.744 26.0803C23.28 24.6883 24.408 23.4403 25.128 22.3363C25.848 21.2323 26.328 20.2243 26.568 19.3123C26.856 18.4003 27 17.5603 27 16.7923C27 14.7763 26.304 13.2403 24.912 12.1843C23.568 11.0803 21.576 10.5283 18.936 10.5283C16.824 10.5283 14.856 10.9363 13.032 11.7523C11.256 12.5683 9.744 13.8403 8.496 15.5683L0 10.0963C1.92 7.21633 4.608 4.93633 8.064 3.25633C11.52 1.57633 15.504 0.736328 20.016 0.736328C23.76 0.736328 27.024 1.36033 29.808 2.60833C32.64 3.80833 34.824 5.51233 36.36 7.72033C37.944 9.92833 38.736 12.5683 38.736 15.6403C38.736 17.2723 38.52 18.9043 38.088 20.5363C37.704 22.1203 36.888 23.8003 35.64 25.5763C34.44 27.3523 32.664 29.3443 30.312 31.5523L14.184 46.7443L11.952 42.4963H40.392V52.0003H2.304Z" fill="#FECB29"/>
</svg>
