<svg width="41" height="52" viewBox="0 0 41 52" fill="none" xmlns="http://www.w3.org/2000/svg">
<path d="M19.224 51.8636C15.72 51.8636 12.24 51.4076 8.784 50.4956C5.328 49.5356 2.4 48.1916 0 46.4636L4.536 37.5356C6.456 38.9276 8.688 40.0316 11.232 40.8476C13.776 41.6636 16.344 42.0716 18.936 42.0716C21.864 42.0716 24.168 41.4956 25.848 40.3436C27.528 39.1916 28.368 37.6076 28.368 35.5916C28.368 33.6716 27.624 32.1596 26.136 31.0556C24.648 29.9516 22.248 29.3996 18.936 29.3996H13.608V21.6956L27.648 5.78361L28.944 9.95961H2.52V0.599609H37.8V8.15961L23.832 24.0716L17.928 20.6876H21.312C27.504 20.6876 32.184 22.0796 35.352 24.8636C38.52 27.6476 40.104 31.2236 40.104 35.5916C40.104 38.4236 39.36 41.0876 37.872 43.5836C36.384 46.0316 34.104 48.0236 31.032 49.5596C27.96 51.0956 24.024 51.8636 19.224 51.8636Z" fill="#FECB29"/>
</svg>
