<svg width="256" height="64" viewBox="0 0 256 64" fill="none" xmlns="http://www.w3.org/2000/svg">
<path fill-rule="evenodd" clip-rule="evenodd" d="M149.583 18.0195C149.308 18.9077 146.713 35.0473 146.713 35.0473C146.713 35.0473 160.312 22.2828 162.533 18.0195C162.508 18.0195 156.245 18.0195 149.583 18.0195ZM187.683 18.0195C186.511 23.0695 180.498 54.6634 180.498 55.8054H186.261L195.618 48.3954L192.749 55.8054H210.713L212.161 47.6595C203.153 47.6595 192.749 47.6595 192.749 47.6595C192.948 46.9489 193.497 44.1829 193.722 43.0409L194.171 41.0108H202.355H210.539L212.136 32.1036C205.873 32.1036 195.593 32.1036 195.593 32.1036C195.743 31.596 196.342 29.3629 196.591 28.2463L197.015 26.2162H206.297H215.579L216.352 22.4858C216.777 20.4303 217.126 18.4255 217.126 18.0449C202.43 17.9941 187.683 18.0195 187.683 18.0195ZM222.191 17.9941C221.742 20.3034 220.744 25.8102 220.744 26.1654H228.653L234.417 18.0195C234.417 18.0195 225.51 17.9941 222.191 17.9941ZM232.97 26.1654L226.508 55.8054C226.508 55.8054 233.469 55.8054 237.287 55.8054L243.05 26.1654H254.553L256 18.0195H240.181L232.97 26.1654ZM171.141 18.0195C169.918 19.1361 163.131 25.0742 161.784 26.1654L164.03 26.1401C168.496 26.1908 169.669 26.7491 169.669 28.8046C169.669 31.4945 167.099 32.8395 161.909 32.8395H157.343L157.842 30.4287C158.316 28.1194 158.091 28.2717 152.852 33.5754L144.568 43.1932C144.094 45.8324 142.621 55.0441 142.422 55.78H155.372C167.648 55.5516 169.719 55.9577 172.588 54.5873C176.905 52.5064 179.1 49.918 179.574 46.2891C180.073 42.5334 179.425 39.8942 177.603 37.991C176.181 36.5191 175.507 36.5191 175.507 36.5191C177.753 34.2098 181.271 31.8244 181.271 28.3732C181.271 25.4041 181.271 23.9323 179.125 20.9632C176.905 18.0195 171.141 18.0195 171.141 18.0195ZM168.072 41.8736C169.344 43.1932 169.12 45.0203 167.498 46.5429C166.425 47.5326 164.504 47.9894 160.237 48.2431L154.623 48.37L156.07 40.96C156.045 40.9854 167.124 40.9093 168.072 41.8736Z" fill="white"/>
<path fill-rule="evenodd" clip-rule="evenodd" d="M81.0667 6.49643L83.1875 7.58763L87.4542 0L81.0667 6.49643ZM72.5333 9.74465H74.6542L76.7751 8.65345L75.7021 7.56225L72.5333 9.74465ZM66.1458 14.0841C66.1458 14.0841 68.5661 15.5305 67.8425 17.0278C67.8425 17.0278 66.9692 16.6725 62.6027 16.7486C53.4706 16.8755 45.9103 21.4433 42.0179 29.1832C40.446 32.3045 40.0967 34.0048 40.0717 38.9025C40.0468 42.1507 41.8682 46.6677 41.8682 46.6677L44.039 44.4346C45.6109 42.9881 49.4035 39.8414 50.5263 39.2577C49.8027 33.3196 54.1443 25.935 63.5259 25.935C63.5259 25.935 67.7926 23.2958 68.5661 22.9659L66.3953 25.935C66.3953 25.935 66.6199 26.2649 68.5661 28.1681C70.7368 30.2744 70.7368 31.6701 70.7368 34.8422C70.7119 38.9532 68.5661 43.1404 65.547 45.4243C62.9021 47.429 57.8121 47.9112 54.9926 46.4393L52.7719 45.2466L48.3556 54.0777L51.724 56.0317C59.6335 58.3918 70.0133 56.0317 75.0035 50.7534C77.324 48.2918 78.6464 45.9318 78.6464 45.9318L78.9209 49.8906L80.7673 50.7534L83.1875 46.6423C83.1875 46.6423 81.6405 43.3688 80.7673 42.0745C80.7673 42.0745 82.2643 34.0555 81.5407 29.6146C81.8402 29.4116 83.9361 27.2799 83.9361 27.2799L83.7115 25.1737L85.3333 20.6059C82.1146 22.6868 78.6713 22.9659 78.6713 22.9659C78.6713 22.9659 75.0534 19.9968 72.184 18.525C72.0593 17.1039 71.4854 14.1094 71.4854 14.1094L70.4125 15.2006L68.2916 13.0436L66.1458 14.0841ZM78.9458 13.0182L75.7521 15.1753L78.9458 18.4235H80.0187L81.0916 16.2665L78.9458 13.0182ZM7.23587 17.7637C7.03626 18.4742 6.43743 22.4584 5.78869 25.9096C5.13996 29.3608 4.56608 33.2435 4.34152 34.0555L10.8289 25.9096L16.5926 17.7637C12.4507 17.7637 7.23587 17.7637 7.23587 17.7637ZM12.3259 30.4266C8.03431 35.6796 6.88655 36.5424 2.89435 40.7296C2.89435 40.7296 1.27251 49.6876 0 55.5496H10.8289L12.276 45.9318C12.276 45.9318 15.4199 46.0079 19.9361 45.8303C28.9185 45.5004 33.1852 42.2268 35.7801 38.9025C37.8261 36.2887 38.2253 33.3196 38.2253 30.3759C38.2253 24.4377 35.331 17.7891 20.1856 17.7891C20.2105 17.7637 16.6175 25.1737 12.3259 30.4266ZM87.3294 17.7637C88.5021 27.5337 91.646 55.042 91.671 55.5496H103.223L108.688 45.2213L114.776 33.345C115.025 35.2736 116.473 51.3878 116.947 55.5749H128.499C133.839 45.1197 147.861 18.1443 147.986 17.7891C147.986 17.7891 141.05 17.7891 137.881 17.7891L125.605 41.4909C124.931 35.3751 122.735 18.322 122.71 17.7891H112.605L106.542 28.701C103.198 35.1721 100.628 41.2371 100.329 40.755C99.83 34.6138 98.1583 26.6709 98.1583 26.6709C97.3099 27.3053 94.9396 29.0056 93.8168 29.64L90.9224 31.8731C91.7209 30.3251 96.6113 19.0325 97.4097 17.7891C97.4347 17.7637 92.4694 17.7637 87.3294 17.7637ZM25.9992 27.4068C27.3715 28.5488 27.5212 29.8176 27.122 32.1015C26.4982 35.5781 23.8784 37.05 18.3891 37.05C14.871 37.05 14.4717 37.0246 14.4717 37.0246C14.6713 36.314 15.2702 33.2942 15.5197 31.8477C16.4678 26.5948 16.6425 25.9096 16.6425 25.9096C19.2624 25.9096 23.8285 25.9096 25.9992 27.4068ZM75.777 54.0777C75.3029 54.6614 70.0133 57.7827 70.0133 57.7827L65.5719 59.4068V62.2236L69.3396 64L72.9076 62.9596L73.1571 60.2443L75.777 54.0777Z" fill="#FFDC26"/>
</svg>
