<svg width="34" height="49" viewBox="0 0 34 49" fill="none" xmlns="http://www.w3.org/2000/svg">
<path d="M0.269531 45.5522C3.00553 47.2082 8.11753 48.7922 14.1655 48.7922C26.0455 48.7922 33.3175 42.7442 33.3175 34.5362C33.3175 28.3442 28.7815 24.0962 23.1655 23.0882V22.9442C28.9255 21.0002 31.7335 17.0402 31.7335 12.0722C31.7335 5.6642 26.1895 0.408203 16.2535 0.408203C10.1335 0.408203 4.58953 2.1362 1.78153 3.9362L4.01353 11.8562C5.88553 10.7042 9.91753 9.0482 13.7335 9.0482C18.4135 9.0482 20.6455 11.1362 20.6455 13.9442C20.6455 17.9042 16.0375 19.3442 12.3655 19.3442H8.04553V27.1922H12.5095C17.3335 27.1922 21.9415 29.2802 21.9415 33.9602C21.9415 37.4162 19.0615 40.1522 13.3735 40.1522C8.90953 40.1522 4.44553 38.3522 2.50153 37.2722L0.269531 45.5522Z" fill="#FECB29"/>
</svg>
