<svg width="239" height="48" viewBox="0 0 239 48" fill="none" xmlns="http://www.w3.org/2000/svg">
<path d="M151.668 12.9441C155.056 12.9441 158.083 13.6689 160.735 15.1184C163.438 16.568 165.548 18.6278 167.06 21.2726C168.587 23.9173 169.351 26.9818 169.351 30.4402C169.351 33.8988 168.587 36.9759 167.06 39.6716C165.534 42.3163 163.426 44.3761 160.735 45.8257C158.083 47.2752 155.056 48 151.668 48C149.274 48 147.076 47.5931 145.071 46.7793C143.118 45.9656 141.461 44.7449 140.116 43.1301V47.555H132.355V0H140.518V17.4961C141.915 15.9958 143.545 14.8641 145.407 14.1012C147.321 13.3256 149.405 12.9441 151.668 12.9441ZM150.75 41.1464C153.751 41.1464 156.208 40.1674 158.123 38.1966C160.076 36.2257 161.059 33.6444 161.059 30.4402C161.059 27.236 160.076 24.6549 158.123 22.684C156.208 20.7131 153.751 19.734 150.75 19.734C148.796 19.734 147.024 20.1791 145.459 21.0819C143.894 21.9338 142.652 23.1799 141.733 24.7947C140.815 26.4222 140.363 28.3041 140.363 30.4402C140.363 32.5764 140.815 34.4582 141.733 36.0859C142.652 37.7133 143.894 38.9722 145.459 39.8622C147.038 40.7142 148.796 41.1464 150.75 41.1464Z" fill="white"/>
<path d="M209.844 30.6302C209.844 31.1896 209.805 31.9781 209.715 32.9953H182.37C182.848 35.5129 184.09 37.5219 186.095 39.0223C188.138 40.4719 190.66 41.1965 193.662 41.1965C197.49 41.1965 200.647 39.9632 203.13 37.4838L207.503 42.4173C205.938 44.2482 203.957 45.647 201.566 46.5879C199.173 47.5288 196.482 47.9992 193.467 47.9992C189.638 47.9992 186.263 47.2491 183.352 45.7613C180.442 44.261 178.179 42.1884 176.562 39.5436C174.996 36.848 174.207 33.8218 174.207 30.4395C174.207 27.1081 174.971 24.1201 176.496 21.4625C178.062 18.767 180.222 16.6816 182.964 15.1812C185.706 13.6808 188.798 12.9434 192.226 12.9434C195.615 12.9434 198.642 13.6936 201.293 15.1812C203.997 16.6308 206.079 18.7033 207.555 21.399C209.08 24.0564 209.844 27.1335 209.844 30.6302ZM192.226 19.3519C189.612 19.3519 187.402 20.1148 185.564 21.6533C183.78 23.1536 182.692 25.1626 182.304 27.6803H202.083C201.733 25.2009 200.673 23.1919 198.887 21.6533C197.103 20.1148 194.877 19.3519 192.226 19.3519Z" fill="white"/>
<path d="M238.628 45.6973C237.67 46.4602 236.494 47.0451 235.109 47.4266C233.765 47.808 232.329 47.9988 230.802 47.9988C226.973 47.9988 224.011 47.0197 221.928 45.0488C219.832 43.078 218.798 40.217 218.798 36.466V19.9871H213.055V13.5786H218.798V5.77148H226.96V13.5914H236.299V19.9998H226.96V36.2753C226.96 37.941 227.374 39.2252 228.202 40.1153C229.029 40.9672 230.233 41.3996 231.798 41.3996C233.622 41.3996 235.148 40.9291 236.363 39.9881L238.628 45.6973Z" fill="white"/>
<path d="M15.4058 14.1008V21.7936H34.4593V33.1992H15.4058V47.5546H0V2.69531H37.1369V14.1008H15.4058Z" fill="#FFDC26"/>
<path d="M79.9777 36.1491V47.5546H42V2.69531H79.1369V14.1008H57.1472V19.3523H76.4593V30.2493H57.1341V36.1491H79.9777Z" fill="#FFDC26"/>
<path d="M126.247 35.8185V47.5546H84.2852V38.2598L105.163 14.4187H84.9319V2.69531H125.199V11.9901L104.309 35.8185H126.247Z" fill="#FFDC26"/>
</svg>
